HIERARCHY
ROOT ui
{
	 OFFSET 0 0 0
	 CHANNELS 3 XPosition YPosition Z Position
	 EndSite
	 {
	 OFFSET 0 -1 0
	 }
}
ROOT li
{
	 OFFSET 0 0 0
	 CHANNELS 3 XPosition YPosition Z Position
	 EndSite
	 {
	 OFFSET 0 -1 0
	 }
}
ROOT ul
{
	 OFFSET 0 0 0
	 CHANNELS 3 XPosition YPosition Z Position
	 EndSite
	 {
	 OFFSET 0 -1 0
	 }
}
ROOT ll
{
	 OFFSET 0 0 0
	 CHANNELS 3 XPosition YPosition Z Position
	 EndSite
	 {
	 OFFSET 0 -1 0
	 }
}
ROOT tt
{
	 OFFSET 0 0 0
	 CHANNELS 3 XPosition YPosition Z Position
	 EndSite
	 {
	 OFFSET 0 -1 0
	 }
}
ROOT tb
{
	 OFFSET 0 0 0
	 CHANNELS 3 XPosition YPosition Z Position
	 EndSite
	 {
	 OFFSET 0 -1 0
	 }
}
ROOT td
{
	 OFFSET 0 0 0
	 CHANNELS 3 XPosition YPosition Z Position
	 EndSite
	 {
	 OFFSET 0 -1 0
	 }
}
ROOT v
{
	 OFFSET 0 0 0
	 CHANNELS 3 XPosition YPosition Z Position
	 EndSite
	 {
	 OFFSET 0 -1 0
	 }
}
ROOT bn
{
	 OFFSET 0 0 0
	 CHANNELS 3 XPosition YPosition Z Position
	 EndSite
	 {
	 OFFSET 0 -1 0
	 }
}
MOTION
Frames: 27
Frame Time: 0.002
0.020527658462524415	0.001361812949180603	0		0.5543377075195313	-2.651454833984375	0		-0.9479071655273438	0.19512181091308595	0		-0.4495799560546875	-3.258158447265625	0		2.27375439453125	-1.7155230712890626	0		3.52152734375	-0.963507080078125	0		4.735521484375	-0.35486474609375	0		6.01707275390625	0.5405250244140625	0		-0.18466488647460938	5.941439453125	0		
0.02977728271484375	-0.008009183883666992	0		0.5087293395996094	-2.654757080078125	0		-1.0234510498046876	0.19737838745117187	0		-0.49227749633789064	-3.266531005859375	0		2.268435302734375	-1.703578369140625	0		3.487932861328125	-0.9650022583007812	0		4.7249921875	-0.3527889404296875	0		6.00533837890625	0.5326389770507812	0		-0.05191792297363281	5.96068359375	0		
0.04435795593261719	-0.0014736959934234619	0		0.5402799072265625	-2.651543701171875	0		-0.9489998168945313	0.19674412536621094	0		-0.454759521484375	-3.26544482421875	0		2.272037841796875	-1.6968043212890624	0		3.5241923828125	-0.975847900390625	0		4.7351142578125	-0.3701168212890625	0		5.99680126953125	0.5336896362304687	0		-0.16776904296875	5.94973193359375	0		
-0.047854286193847656	0.01612788963317871	0		0.5071207580566406	-2.633076171875	0		-0.9495206298828125	0.19756340026855468	0		-0.4958919677734375	-3.245832763671875	0		2.266767822265625	-1.6838597412109375	0		3.528106689453125	-0.95306689453125	0		4.74388671875	-0.3544193420410156	0		6.00427587890625	0.5344213256835938	0		-0.03496465301513672	5.96898779296875	0		
0.03618692016601562	-0.006680912017822266	0		0.5543611450195313	-2.6461689453125	0		-0.960019287109375	0.19957675170898437	0		-0.4773331909179688	-3.2423759765625	0		2.257359375	-1.6778438720703126	0		3.522055908203125	-0.9801130981445313	0		4.74611962890625	-0.36661410522460935	0		6.00375341796875	0.5352908935546875	0		-0.052676288604736325	5.96214453125	0		
-0.05028980255126953	-0.0022005729675292967	0		0.5279026489257812	-2.64184423828125	0		-0.9605513305664063	0.2003948211669922	0		-0.5117879028320312	-3.23790087890625	0		2.2907509765625	-1.68166845703125	0		3.514703125	-0.97014453125	0		4.7472998046875	-0.3808099670410156	0		5.99806689453125	0.5282335815429687	0		-0.18564950561523438	5.94251611328125	0		
0.017315343856811525	0.006297554016113281	0		0.5532838134765625	-2.64453369140625	0		-0.970259765625	0.19338145446777344	0		-0.4753509521484375	-3.237802978515625	0		2.258336181640625	-1.673241455078125	0		3.5318544921875	-0.9846778564453125	0		4.74362890625	-0.38594009399414064	0		5.994337890625	0.5201038818359375	0		-0.06701459503173827	5.9520302734375	0		
-0.046512718200683596	-0.004688230037689209	0		0.5038846740722657	-2.63279638671875	0		-0.9616951904296875	0.20200718688964844	0		-0.5068140869140625	-3.22940771484375	0		2.257067626953125	-1.6554393310546875	0		3.52368701171875	-0.96174755859375	0		4.74886328125	-0.3942796630859375	0		5.99375146484375	0.52087255859375	0		-0.18480517578125	5.9420869140625	0		
0.030806556701660156	-0.00741633415222168	0		0.5571644287109375	-2.636066162109375	0		-0.908466064453125	0.19475189208984375	0		-0.5043953552246093	-3.224684814453125	0		2.259481689453125	-1.6517423095703125	0		3.539429443359375	-0.993326171875	0		4.75822998046875	-0.3937406616210937	0		5.9972822265625	0.5295142211914062	0		-0.053937961578369144	5.96433203125	0		
-0.0527306022644043	9.383080005645752E-4	0		0.5284827270507813	-2.63378076171875	0		-0.9821180419921876	0.19692793273925782	0		-0.4711935729980469	-3.228580810546875	0		2.279056396484375	-1.6374107666015625	0		3.540074951171875	-0.9756464233398437	0		4.76024658203125	-0.4091109008789062	0		5.9924677734375	0.5222599487304688	0		-0.0677696762084961	5.95233935546875	0		
0.025371561050415038	-0.0088606538772583	0		0.5536596069335937	-2.636567138671875	0		-0.9139135131835937	0.19233949279785156	0		-0.5177055053710937	-3.213958740234375	0		2.2484951171875	-1.6271507568359376	0		3.548900390625	-0.998178466796875	0		4.7554140625	-0.4143991394042969	0		5.99176904296875	0.5228692626953125	0		-0.06836292266845703	5.95306640625	0		
-0.04926441955566406	-0.0017326409816741943	0		0.5289483642578126	-2.63042041015625	0		-0.9876414794921875	0.19447261047363282	0		-0.4835777587890625	-3.21592626953125	0		2.2518232421875	-1.6205888671875	0		3.53513134765625	-0.9973189086914063	0		4.75636669921875	-0.4288573913574219	0		5.9958798828125	0.5153206787109375	0		-0.1719408721923828	5.95575927734375	0		
0.02790456199645996	-0.004576670169830322	0		0.533204345703125	-2.623868408203125	0		-0.9784342041015625	0.19397633361816408	0		-0.532330078125	-3.208314697265625	0		2.2283681640625	-1.6005498046875	0		3.5360703125	-1.0097986450195313	0		4.74559716796875	-0.4271451110839844	0		5.9912548828125	0.5228768310546875	0		-0.1706107940673828	5.9523935546875	0		
-0.03964933013916016	0.009358193397521973	0		0.5323069458007812	-2.623251953125	0		-0.9851282348632813	0.19976483154296876	0		-0.47514361572265623	-3.20278662109375	0		2.259736083984375	-1.58862060546875	0		3.54065966796875	-0.9873955078125	0		4.75164404296875	-0.4338204650878906	0		5.990474609375	0.5232896728515625	0		-0.17118829345703124	5.9530361328125	0		
0.02629433822631836	-0.0033365581035614015	0		0.5366362915039062	-2.6097685546875	0		-0.9950645751953126	0.193589599609375	0		-0.5208296508789062	-3.188286376953125	0		2.225980712890625	-1.5814700927734375	0		3.507404052734375	-1.007314208984375	0		4.74769873046875	-0.43935867309570314	0		5.98553173828125	0.5157182006835938	0		-0.05549278259277344	5.9653876953125	0		
-0.05245998382568359	7.595279812812805E-4	0		0.509767822265625	-2.6057119140625	0		-0.9310320434570313	0.18494468688964844	0		-0.5006759948730469	-3.18209765625	0		2.22544873046875	-1.5630040283203126	0		3.532406494140625	-1.014411865234375	0		4.76061376953125	-0.45227984619140627	0		5.984748046875	0.5160090942382812	0		-0.05503725433349609	5.9649462890625	0		
0.020637895584106444	-0.005141432762145996	0		0.5098831481933593	-2.60321435546875	0		-1.0047987060546875	0.18696481323242187	0		-0.5324862060546875	-3.1739228515625	0		2.189976806640625	-1.5418931884765625	0		3.531564453125	-1.0140491943359375	0		4.7583896484375	-0.47295648193359374	0		5.97982861328125	0.5083259582519531	0		-0.05650200271606445	5.96651220703125	0		
0.023941429138183593	-0.0017096459865570067	0		0.5110260314941406	-2.600769775390625	0		-0.932556884765625	0.18609878540039063	0		-0.5262772216796875	-3.1665205078125	0		2.193608642578125	-1.5175836181640625	0		3.537146240234375	-0.9938510131835937	0		4.757609375	-0.4727034606933594	0		5.97592578125	0.4995731201171875	0		-0.17318399047851563	5.955306640625	0		
0.02323982810974121	-0.0012303789854049682	0		0.5142733764648437	-2.595398193359375	0		-1.0062335815429688	0.18806965637207032	0		-0.5348827514648438	-3.151855224609375	0		2.18221630859375	-1.4970157470703125	0		3.512919921875	-1.0171153564453126	0		4.756880859375	-0.47249502563476564	0		5.9752529296875	0.49971182250976565	0		-0.04111761474609375	5.9761943359375	0		
0.01854508399963379	-0.003701981067657471	0		0.5353399047851563	-2.602411376953125	0		-0.9379509887695312	0.18321839904785156	0		-0.5017925109863282	-3.15604345703125	0		2.2027236328125	-1.4851126708984375	0		3.532614013671875	-0.9972733764648437	0		4.75482177734375	-0.4923048095703125	0		5.974646484375	0.4998057556152344	0		-0.04139749145507812	5.97664697265625	0		
0.02203952217102051	-3.61629992723465E-4	0		0.5107186279296875	-2.596549072265625	0		-0.9493034057617188	0.19391363525390626	0		-0.54624609375	-3.13972265625	0		2.18838720703125	-1.468553466796875	0		3.501697265625	-1.0114735717773438	0		4.751109375	-0.4981170959472656	0		5.96095751953125	0.4921164245605469	0		-0.05580675506591797	5.9663505859375	0		
0.017490720748901366	-0.0028885910511016848	0		0.5359968872070312	-2.599703369140625	0		-0.9448812255859375	0.18927073669433594	0		-0.5320601806640625	-3.14558984375	0		2.146367431640625	-1.4394708251953126	0		3.4962822265625	-1.0042064208984376	0		4.74646875	-0.5039476623535156	0		5.9621416015625	0.4740911865234375	0		-0.1741280517578125	5.95709521484375	0		
0.021130300521850585	3.9983299374580383E-4	0		0.4886519470214844	-2.586434814453125	0		-1.0082952270507812	0.18996018981933593	0		-0.5373304443359375	-3.127088134765625	0		2.13437255859375	-1.4130107421875	0		3.49755615234375	-1.0161083984375	0		4.74083740234375	-0.5127944946289062	0		5.96591259765625	0.4819800415039063	0		-0.1731680450439453	5.95645703125	0		
0.020773563385009765	7.466279864311218E-4	0		0.534265869140625	-2.57904248046875	0		-0.9397325439453125	0.18499908447265626	0		-0.54462353515625	-3.112565185546875	0		2.120580322265625	-1.3795377197265626	0		3.517884765625	-0.9784114379882812	0		4.7514423828125	-0.5129964599609375	0		5.9575908203125	0.4820728759765625	0		-0.04067626190185547	5.977171875	0		
0.020466033935546874	0.0010746010541915893	0		0.5037391357421875	-2.580148681640625	0		-0.9508239135742188	0.19561482238769531	0		-0.54617431640625	-3.113176513671875	0		2.1343515625	-1.370643310546875	0		3.4561376953125	-0.9961058349609375	0		4.7349208984375	-0.5216848754882812	0		5.953158203125	0.47405673217773436	0		-0.040554927825927733	5.97750439453125	0		
0.016129684448242188	-0.0015322500467300415	0		0.5302068481445312	-2.58341552734375	0		-0.9584274291992188	0.17914262390136718	0		-0.5692721557617187	-3.092363525390625	0		2.103685546875	-1.3348690185546874	0		3.475823974609375	-0.99444970703125	0		4.7331826171875	-0.5426948852539063	0		5.9494130859375	0.4489983825683594	0		-0.041372230529785156	5.9788408203125	0		
-0.061102432250976564	0.0013238530158996582	0		0.4799573974609375	-2.57214599609375	0		-1.0226688842773437	0.1808091583251953	0		-0.5667122192382813	-3.089081787109375	0		2.095743896484375	-1.3135693359375	0		3.4754814453125	-0.9944105834960938	0		4.7297529296875	-0.548688232421875	0		5.94118017578125	0.4490135803222656	0		-0.17264991760253906	5.95779833984375	0		
